<svg width="20" height="20" viewBox="0 0 20 20" fill="none" xmlns="http://www.w3.org/2000/svg">
<path d="M19.6887 0.122768C19.9343 0.301339 20.0347 0.539435 19.9901 0.837054L17.1329 17.9799C17.0957 18.1957 16.9767 18.3631 16.7758 18.4821C16.6716 18.5417 16.5563 18.5714 16.4298 18.5714C16.348 18.5714 16.2587 18.5528 16.162 18.5156L11.1062 16.4509L8.40526 19.7433C8.27133 19.9144 8.08904 20 7.85838 20C7.76166 20 7.67981 19.9851 7.61285 19.9554C7.47148 19.9033 7.35801 19.8158 7.27245 19.6931C7.18688 19.5703 7.1441 19.4345 7.1441 19.2857V15.3906L16.787 3.57143L4.85615 13.8951L0.447669 12.0871C0.172371 11.9829 0.0235615 11.7783 0.00124008 11.4732C-0.0136409 11.1756 0.105407 10.9561 0.358383 10.8147L18.9298 0.100446C19.0414 0.0334821 19.1605 0 19.287 0C19.4358 0 19.5697 0.0409226 19.6887 0.122768Z" fill="#F1416C"/>
</svg>
